<?xml version="1.0" encoding="UTF-8"?>
<svg id="Layer_1" data-name="Layer 1" xmlns="http://www.w3.org/2000/svg" viewBox="0 0 37.448 34.438">
  <defs>
    <style>
      .cls-1 {
        fill: #bababa;
      }
    </style>
  </defs>
  <path class="cls-1" d="M29.867,12.025c.006-.153.023-.303.023-.457,0-6.379-5.189-11.568-11.568-11.568S6.754,5.189,6.754,11.568c0,.262.022.519.039.777C2.793,14.168,0,18.195,0,22.87c0,6.379,5.189,11.568,11.568,11.568,2.702,0,5.185-.938,7.156-2.496,1.971,1.558,4.454,2.496,7.156,2.496,6.378,0,11.568-5.188,11.568-11.568,0-4.976-3.164-9.216-7.581-10.845ZM21.353,22.87c0,2.57-1.004,4.904-2.629,6.652-1.616-1.737-2.615-4.054-2.627-6.605.721.141,1.464.22,2.225.22,1.048,0,2.058-.152,3.024-.415,0,.05.008.098.008.148ZM18.322,21.354c-.708,0-1.398-.08-2.064-.223.339-1.879,1.216-3.569,2.465-4.912,1.206,1.296,2.072,2.913,2.435,4.713-.899.273-1.85.423-2.837.423ZM14.539,20.592c-2.946-1.24-5.161-3.881-5.808-7.085.898-.273,1.85-.422,2.836-.422,2.186,0,4.2.729,5.83,1.945-1.417,1.532-2.433,3.439-2.859,5.562ZM20.05,15.03c1.631-1.216,3.645-1.945,5.83-1.945.708,0,1.398.08,2.064.223-.546,3.022-2.479,5.564-5.119,6.939-.463-1.984-1.436-3.769-2.775-5.217ZM8.537,11.568c0-5.396,4.389-9.786,9.785-9.786s9.758,4.365,9.783,9.739c-.721-.141-1.464-.22-2.225-.22-2.702,0-5.185.938-7.156,2.496-1.971-1.558-4.454-2.496-7.156-2.496-1.047,0-2.057.152-3.023.414,0-.05-.008-.098-.008-.148ZM1.783,22.87c0-3.772,2.149-7.046,5.283-8.679.887,3.807,3.654,6.889,7.269,8.222-.006.153-.023.303-.023.457,0,3.027,1.177,5.776,3.086,7.84-1.631,1.216-3.645,1.945-5.83,1.945-5.396,0-9.785-4.389-9.785-9.785ZM25.88,32.655c-2.186,0-4.2-.729-5.83-1.945,1.909-2.063,3.086-4.813,3.086-7.84,0-.262-.022-.519-.039-.777,3.333-1.518,5.828-4.565,6.566-8.247,3.523,1.482,6.003,4.969,6.003,9.024,0,5.396-4.389,9.785-9.786,9.785Z"/>
</svg>