<?xml version="1.0" encoding="UTF-8"?>
<svg id="Layer_1" data-name="Layer 1" xmlns="http://www.w3.org/2000/svg" viewBox="0 0 34.172 34.171">
  <defs>
    <style>
      .cls-1 {
        fill: #bababa;
      }
    </style>
  </defs>
  <path class="cls-1" d="M27.008,0H7.166C3.215,0,0,3.214,0,7.164v19.842c0,3.95,3.215,7.165,7.166,7.165h19.842c3.949,0,7.164-3.215,7.164-7.165V7.164c0-3.95-3.215-7.164-7.164-7.164ZM32.413,27.006c0,2.981-2.425,5.406-5.406,5.406H7.166c-2.981,0-5.407-2.425-5.407-5.406V7.164C1.758,4.183,4.185,1.758,7.166,1.758h19.842c2.981,0,5.406,2.425,5.406,5.406v19.842Z"/>
  <path class="cls-1" d="M9.498,14.417c-1.474,0-2.669,1.195-2.669,2.669s1.195,2.669,2.669,2.669,2.669-1.195,2.669-2.669-1.195-2.669-2.669-2.669Z"/>
  <circle class="cls-1" cx="17.086" cy="17.085" r="2.669"/>
  <path class="cls-1" d="M24.673,14.417c-1.474,0-2.669,1.195-2.669,2.669s1.195,2.669,2.669,2.669,2.669-1.195,2.669-2.669-1.195-2.669-2.669-2.669Z"/>
</svg>