<?xml version="1.0" encoding="UTF-8"?>
<svg id="Layer_1" data-name="Layer 1" xmlns="http://www.w3.org/2000/svg" viewBox="0 0 33.881 33.984">
  <defs>
    <style>
      .cls-1 {
        fill: #bababa;
      }
    </style>
  </defs>
  <path class="cls-1" d="M2.395,15.447h10.658c1.321,0,2.395-1.074,2.395-2.394V2.394c0-1.32-1.074-2.394-2.395-2.394H2.395C1.074,0,0,1.074,0,2.394v10.659c0,1.32,1.074,2.394,2.395,2.394ZM1.783,2.394c0-.337.274-.611.612-.611h10.658c.338,0,.612.274.612.611v10.659c0,.338-.274.611-.612.611H2.395c-.338,0-.612-.273-.612-.611V2.394Z"/>
  <path class="cls-1" d="M31.487,0h-10.657c-1.321,0-2.396,1.074-2.396,2.394v10.659c0,1.32,1.074,2.394,2.396,2.394h10.657c1.32,0,2.394-1.074,2.394-2.394V2.394c0-1.32-1.074-2.394-2.394-2.394ZM32.098,13.053c0,.338-.273.611-.611.611h-10.657c-.338,0-.613-.273-.613-.611V2.394c0-.337.275-.611.613-.611h10.657c.338,0,.611.274.611.611v10.659Z"/>
  <path class="cls-1" d="M31.487,18.537H2.395c-1.321,0-2.395,1.074-2.395,2.394v10.659c0,1.32,1.074,2.394,2.395,2.394h29.092c1.32,0,2.394-1.074,2.394-2.394v-10.659c0-1.32-1.074-2.394-2.394-2.394ZM32.098,31.59c0,.338-.273.611-.611.611H2.395c-.338,0-.612-.273-.612-.611v-10.659c0-.338.274-.611.612-.611h29.092c.338,0,.611.273.611.611v10.659Z"/>
</svg>